@startuml MVC

namespace Model {


    Feature --> Position
    Feature --> Scale

    MapPin --> Position
    Viewport --> Position

    Observation --> Feature
    Observation --> Position
    Observation --> ObservationStation

    ObservationStation --> Feature
    ObservationStation --> Position

    Scale --> Color

    class MapPin {
        +constructor(position : Position)

        + getPosition() : Position
        + setPosition(position : Position) : void

        + getValue() : number
        + setValue(value : number) : void

        + getStationId() : string
        + setStationId(id : string) : void

        + getColor() : Color
        + setColor(color : Color) : void
    }

    class Viewport {
        + getCenter() : Position
        + getZoom() : number
        + getRadius() : number
        + setCenter(position : Position) : void
        + setZoom(zoom : number) : void
    }

    class ObservationStation {
        - id : string
        - name : string
        - description : string
        - position : Position
        - availableFeatures : Feature[]

        + constructor(id: string, name: string, description: string, position: Position)
        + setFeatures(features : Features[])
        + getId() : string
        + getName() : string
        + getDescription() : string
        + getPosition() : Position
        + getFeatures() : Feature[]
        + async getDiagrams() : Promise<DetailPage.Diagram[]>
        + hasFeature(feature : Feature) : Boolean
    }

    class Observation {
        - observationStation : ObservationStation
        - feature : Feature
        - value : number
        - timestamp : Date

        + constructor(observationStation: ObservationStation, feature: Feature, date: Date, value: number)
        + getObservationStation() : ObservationStation
        + getFeature() : Feature
        + getValue() : number
        + getTimeStamp() : Date
    }

    enum Timespan {
        LAST_YEAR,
        LAST_3_MONTHS,
        LAST_MONTH,
        LAST_WEEK,
        LAST_3_DAYS,
        TODAY,
    }

    class Position {
        - latitude : number
        - logitude : number

        + constructor(latitude: number, longitude: number)
        + getCoordinates(): [lat : number, lng: number]

        + getLatitude(): number
        + getLongitude(): number
        + toString(): string
    }

    class Feature {
        - id : number
        - name : string
        - description : string
        - scale : Scale
        - relatedWeblink : string
        - drawableDiagrams : DetailPage.Diagram[]
        - limit: number
        - unitOfMeasurement: string

        + constructor(id : number, name : string, description : string, scale : Scale, relatedWeblink : string, drawableDiagrams : DetailPage.Diagram[], limit: number, unitOfMeasurement: string)
        + getID(): number
        + getName(): string
        + getDescription(): string
        + getRelatedScale(): Scale
        + getRelatedWeblink(): string
        + async getDrawableDiagrams(observationStation: ObservationStation): Promise<DetailPage.Diagram[]>
        + getLimit(): number
        + getUnitOfMeasurement(): string
        + isLimitExeeded(observation: Observation): boolean
    }

    class Color {
        {static} + readonly GREEN = "#50EE70"
        {static} + readonly LIGHTGREEN = "#AAFF55"
        {static} + readonly YELLOW = "#FFFF00"
        {static} + readonly ORANGE = "#FFA500"
        {static} + readonly RED = "#FF0000"
        {static} + readonly WHITE = "#FFFFFF"
        {static} + readonly BLACK = "#000000"
        {static} + readonly PRIMARY
        {static} + readonly SECONDARY

        + constructor(r: number, g: number, b: number)
        + constructor(hex: string)
        + getRGB() : [number, number, number]
        + getHex() : string
    }

    class Scale {
        + constructor(linearTransition: boolean, colors : {number, string}[])
        + getColor(value : number) : Color
    }

}

namespace View {
    namespace Components {
        namespace MapPage {

            'View.Components.Layout.MapPage *-- View.Components.MapPage.MapView
            
            MapView *-- Search
            
            MapView *-- Map
            MapView *-- FeatureSelect

            Map *-- Legend

            class FeatureSelect {
                + getSelectedFeature() : Feature
                + onConfigurationChanged(conf : MapConfiguration)
            }
            class Search {
                + State.searchTerm : string
                + onSearch(string searchTerm) : void
                + onLocationSearch() : void
                + reset() : void
            }

            class MapView {
                + selectStation(station : Messstation)
                + getValueAt(position: Position, feature : Feature) : number
                + onViewportChange(viewport : Viewport)
                + onStationSelected(pin : MapPin)
            }
            class Map {
                + Props.pins : MapPin[]
                + Props.polygons : Polygon[]
                + Props.onViewportChange()
            }
            class Legend {
                + Props.scale : Scale
            }
        }
        namespace DetailPage {
            class ObservationStationProfile {
                + Props.observationStation: ObservationStation
            }
            class LocationMap {
                + Props.position: Position
            }
            abstract Diagram {
                + props.feature: Feature
                + props.observationStation: ObservationStation
                + getId() : string
            }
            class FeatureHistoryLineChart extends Diagram
            class YearComparisonLineChart extends Diagram
            class ComparisonToLastYearPieChart extends Diagram
        }


        namespace Layout {
            class MapPage
            class DetailPage {
                Props.id: string
            }
            class ErrorPage {
                props.errorCode : number
                props.errorMessage : string
            }
            class PrivacyPolicyPage
            class AboutPage
            class PageMenu
            class LanguageMenu
            class Layout
        }
    }
}


namespace Controller {
    namespace Frost {
        class FROSTServer {
            + setUrl(url : string) : void
            + getUrl() : string
        }

        class FROSTQuery {
            + send() : QueryResult
            + setTop(n : number) : void
            + setSkip(n : number) : void
            + enableCount(set : boolean) : void
            + setOrderBy(orderBy : string) : void
            + setSelect(select : string) : void
            + setFilter(filter : string) : void
            + setExpand(expand : string) : void
            + setId(id : string) : void
            + setType(type : string) : void
            + setSubType(type : string) : void
        }

        interface QueryResult
 
        class Adapter {
            + convertToLoc(data : QueryResult) : Location[]
            + convertToObs(data : QueryResult, station ObservationStation) : Observations[]
            + convertToSta(data : QueryResult) : ObservationStation[]
            + getaAvailableFeatures(data : QueryResult) : Features[]
        }

        class DataProvider {
            + getLatestObservations(center : Position, radius: number, feature : Feature) : Observation[]
            + getLatestObservation(station : ObservationStation, feature : Feature) : Observation
            + getObservations(station : ObservationStation, start : Date, end : Date, feature : Feature) : Observation[]
            + getObservations(station : ObservationStation, start : Date, end : Date, feature : Feature, frequency : Frequency) : Observation[]
            + getObservationStations(middle: Position, radius : number) : ObservationStation[]
            + getObservationStation(id : string) : ObservationStation
        }
        class FeatureProvider {
            registeredFeatures : Feature[]
            + getFeature(featureID : string) : Feature
            + getRegisteredFeatures() : Feature[]
        }
    }
    namespace Storage {
        class Language {
            {static} + getText(id: string) : string
            {static} + changeLanguage(languageId : string): void
            {static} + getSelectedLanguageId() : string
        }

        class MapConfigurationMemory {
            + save(MapConfiguration conf, viewport : Viewport)
            + load() : (MapConfiguration, Viewport)
        }
    }

    MapController --> Controller.Storage.MapConfigurationMemory

    class MapController {
        + handlePopup(pin : MapPin) : [Station, Observation]
        + handleViewportChange(viewport : Viewport)
        --
        + getPins() : MapPin[]
        + getPolygons() : Polygon[]

        + changeFeature(feature : Feature) : void
        + onConfigurationChange(mapConf : MapConfiguration) : void
        + search(searchTerm : string) : void
        + updateCurrentPosition(position : Position) : void
    }

    abstract MapConfiguration {
        + getPins(port : Viewport) : MapPin[]
        + getPolygons(port: Viewport) : Polygon[]
        + getScale() : Scale
        + getFeatures() : Feature[]
    }

    class StationConfiguration extends MapConfiguration {
        + setFeature(feature : Feature)
    }

    class PolygonConfiguration extends MapConfiguration {
        + setFeature(feature : Feature)
    }

    class NearConfiguration extends MapConfiguration {
        + radius : number
        --
        + setFeature(feature : Feature)
    }

}

@enduml
